HIERARCHY
ROOT Hips
{
  OFFSET 14.4105 92.754 18.0687
  CHANNELS 6 Xposition Yposition Zposition Zrotation Xrotation Yrotation
  JOINT Spine
  {
    OFFSET 0 8 0
    CHANNELS 6 Xposition Yposition Zposition Zrotation Xrotation Yrotation
    JOINT Spine1
    {
      OFFSET 0 8 0
      CHANNELS 6 Xposition Yposition Zposition Zrotation Xrotation Yrotation
      JOINT Spine2
      {
        OFFSET 0 8.00001 0
        CHANNELS 6 Xposition Yposition Zposition Zrotation Xrotation Yrotation
        JOINT Spine3
        {
          OFFSET 0 8 0
          CHANNELS 6 Xposition Yposition Zposition Zrotation Xrotation Yrotation
          JOINT Neck
          {
            OFFSET 0 17 0
            CHANNELS 6 Xposition Yposition Zposition Zrotation Xrotation Yrotation
            JOINT Head
            {
              OFFSET 0 10.8 0
              CHANNELS 6 Xposition Yposition Zposition Zrotation Xrotation Yrotation
              End Site
              {
                OFFSET 0 20.25 0
              }
            }
          }
          JOINT LeftShoulder
          {
            OFFSET 5 17 0.000118619
            CHANNELS 6 Xposition Yposition Zposition Zrotation Xrotation Yrotation
            JOINT LeftShoulder2
            {
              OFFSET 6.45 0 0
              CHANNELS 6 Xposition Yposition Zposition Zrotation Xrotation Yrotation
              JOINT LeftArm
              {
                OFFSET 6.45 0 6.29817e-05
                CHANNELS 6 Xposition Yposition Zposition Zrotation Xrotation Yrotation
                JOINT LeftForeArm
                {
                  OFFSET 0 -32.4 -2
                  CHANNELS 6 Xposition Yposition Zposition Zrotation Xrotation Yrotation
                  JOINT LeftHand
                  {
                    OFFSET -1.84452e-05 -25.65 2
                    CHANNELS 6 Xposition Yposition Zposition Zrotation Xrotation Yrotation
                    JOINT LeftHandThumb1
                    {
                      OFFSET -0.499996 -1.5 2.65
                      CHANNELS 6 Xposition Yposition Zposition Zrotation Xrotation Yrotation
                      JOINT LeftHandThumb2
                      {
                        OFFSET 0 -3.8 3.7
                        CHANNELS 6 Xposition Yposition Zposition Zrotation Xrotation Yrotation
                        JOINT LeftHandThumb3
                        {
                          OFFSET 0 -3 2.7
                          CHANNELS 6 Xposition Yposition Zposition Zrotation Xrotation Yrotation
                          End Site
                          {
                            OFFSET -1.16373e-05 -2.3 1.8
                          }
                        }
                      }
                    }
                    JOINT LeftHandIndex
                    {
                      OFFSET 0 -1.89999 1.6
                      CHANNELS 6 Xposition Yposition Zposition Zrotation Xrotation Yrotation
                      JOINT LeftHandIndex1
                      {
                        OFFSET 0 -8.3 1.9
                        CHANNELS 6 Xposition Yposition Zposition Zrotation Xrotation Yrotation
                        JOINT LeftHandIndex2
                        {
                          OFFSET 0 -4.5 0
                          CHANNELS 6 Xposition Yposition Zposition Zrotation Xrotation Yrotation
                          JOINT LeftHandIndex3
                          {
                            OFFSET 0 -3.4 0
                            CHANNELS 6 Xposition Yposition Zposition Zrotation Xrotation Yrotation
                            End Site
                            {
                              OFFSET 0 -2.6 0
                            }
                          }
                        }
                      }
                    }
                    JOINT LeftHandMiddle
                    {
                      OFFSET -0.249994 -2.2 0.400003
                      CHANNELS 6 Xposition Yposition Zposition Zrotation Xrotation Yrotation
                      JOINT LeftHandMiddle1
                      {
                        OFFSET 0 -8.3 0.999998
                        CHANNELS 6 Xposition Yposition Zposition Zrotation Xrotation Yrotation
                        JOINT LeftHandMiddle2
                        {
                          OFFSET 0 -4.65 0
                          CHANNELS 6 Xposition Yposition Zposition Zrotation Xrotation Yrotation
                          JOINT LeftHandMiddle3
                          {
                            OFFSET 1.07082e-05 -3.3 0
                            CHANNELS 6 Xposition Yposition Zposition Zrotation Xrotation Yrotation
                            End Site
                            {
                              OFFSET 0 -2.7 0
                            }
                          }
                        }
                      }
                    }
                    JOINT LeftHandRing
                    {
                      OFFSET -0.499997 -2.15 -0.800001
                      CHANNELS 6 Xposition Yposition Zposition Zrotation Xrotation Yrotation
                      JOINT LeftHandRing1
                      {
                        OFFSET 0 -7.75 -0.200001
                        CHANNELS 6 Xposition Yposition Zposition Zrotation Xrotation Yrotation
                        JOINT LeftHandRing2
                        {
                          OFFSET 0 -3.79999 0
                          CHANNELS 6 Xposition Yposition Zposition Zrotation Xrotation Yrotation
                          JOINT LeftHandRing3
                          {
                            OFFSET 0 -3.4 0
                            CHANNELS 6 Xposition Yposition Zposition Zrotation Xrotation Yrotation
                            End Site
                            {
                              OFFSET 0 -2.6 0
                            }
                          }
                        }
                      }
                    }
                    JOINT LeftHandPinky
                    {
                      OFFSET -0.74999 -1.75 -1.85
                      CHANNELS 6 Xposition Yposition Zposition Zrotation Xrotation Yrotation
                      JOINT LeftHandPinky1
                      {
                        OFFSET 0 -7.15 -0.999998
                        CHANNELS 6 Xposition Yposition Zposition Zrotation Xrotation Yrotation
                        JOINT LeftHandPinky2
                        {
                          OFFSET 1.16856e-05 -3 0
                          CHANNELS 6 Xposition Yposition Zposition Zrotation Xrotation Yrotation
                          JOINT LeftHandPinky3
                          {
                            OFFSET 0 -2.35 0
                            CHANNELS 6 Xposition Yposition Zposition Zrotation Xrotation Yrotation
                            End Site
                            {
                              OFFSET 0 -2.1 0
                            }
                          }
                        }
                      }
                    }
                  }
                }
              }
            }
          }
          JOINT RightShoulder
          {
            OFFSET -5 17 -0.000119102
            CHANNELS 6 Xposition Yposition Zposition Zrotation Xrotation Yrotation
            JOINT RightShoulder2
            {
              OFFSET -6.45 0 0
              CHANNELS 6 Xposition Yposition Zposition Zrotation Xrotation Yrotation
              JOINT RightArm
              {
                OFFSET -6.45 1.92446e-05 -0.000163649
                CHANNELS 6 Xposition Yposition Zposition Zrotation Xrotation Yrotation
                JOINT RightForeArm
                {
                  OFFSET 0 -32.4 -2
                  CHANNELS 6 Xposition Yposition Zposition Zrotation Xrotation Yrotation
                  JOINT RightHand
                  {
                    OFFSET 0 -25.65 2
                    CHANNELS 6 Xposition Yposition Zposition Zrotation Xrotation Yrotation
                    JOINT RightHandThumb1
                    {
                      OFFSET 0.500006 -1.5 2.65
                      CHANNELS 6 Xposition Yposition Zposition Zrotation Xrotation Yrotation
                      JOINT RightHandThumb2
                      {
                        OFFSET 0 -3.8 3.7
                        CHANNELS 6 Xposition Yposition Zposition Zrotation Xrotation Yrotation
                        JOINT RightHandThumb3
                        {
                          OFFSET 0 -3 2.69999
                          CHANNELS 6 Xposition Yposition Zposition Zrotation Xrotation Yrotation
                          End Site
                          {
                            OFFSET 0 -2.3 1.8
                          }
                        }
                      }
                    }
                    JOINT RightHandIndex
                    {
                      OFFSET 0 -1.9 1.59999
                      CHANNELS 6 Xposition Yposition Zposition Zrotation Xrotation Yrotation
                      JOINT RightHandIndex1
                      {
                        OFFSET 0 -8.3 1.9
                        CHANNELS 6 Xposition Yposition Zposition Zrotation Xrotation Yrotation
                        JOINT RightHandIndex2
                        {
                          OFFSET 0 -4.5 0
                          CHANNELS 6 Xposition Yposition Zposition Zrotation Xrotation Yrotation
                          JOINT RightHandIndex3
                          {
                            OFFSET 0 -3.4 0
                            CHANNELS 6 Xposition Yposition Zposition Zrotation Xrotation Yrotation
                            End Site
                            {
                              OFFSET 0 -2.6 0
                            }
                          }
                        }
                      }
                    }
                    JOINT RightHandMiddle
                    {
                      OFFSET 0.250002 -2.2 0.399999
                      CHANNELS 6 Xposition Yposition Zposition Zrotation Xrotation Yrotation
                      JOINT RightHandMiddle1
                      {
                        OFFSET 0 -8.3 0.999998
                        CHANNELS 6 Xposition Yposition Zposition Zrotation Xrotation Yrotation
                        JOINT RightHandMiddle2
                        {
                          OFFSET 0 -4.65 0
                          CHANNELS 6 Xposition Yposition Zposition Zrotation Xrotation Yrotation
                          JOINT RightHandMiddle3
                          {
                            OFFSET -1.48003e-05 -3.3 0
                            CHANNELS 6 Xposition Yposition Zposition Zrotation Xrotation Yrotation
                            End Site
                            {
                              OFFSET 1.49242e-05 -2.7 0
                            }
                          }
                        }
                      }
                    }
                    JOINT RightHandRing
                    {
                      OFFSET 0.500005 -2.15 -0.800003
                      CHANNELS 6 Xposition Yposition Zposition Zrotation Xrotation Yrotation
                      JOINT RightHandRing1
                      {
                        OFFSET -1.00402e-05 -7.75 -0.199999
                        CHANNELS 6 Xposition Yposition Zposition Zrotation Xrotation Yrotation
                        JOINT RightHandRing2
                        {
                          OFFSET 0 -3.8 0
                          CHANNELS 6 Xposition Yposition Zposition Zrotation Xrotation Yrotation
                          JOINT RightHandRing3
                          {
                            OFFSET 0 -3.4 0
                            CHANNELS 6 Xposition Yposition Zposition Zrotation Xrotation Yrotation
                            End Site
                            {
                              OFFSET 0 -2.6 0
                            }
                          }
                        }
                      }
                    }
                    JOINT RightHandPinky
                    {
                      OFFSET 0.75 -1.75 -1.85
                      CHANNELS 6 Xposition Yposition Zposition Zrotation Xrotation Yrotation
                      JOINT RightHandPinky1
                      {
                        OFFSET 0 -7.15 -1
                        CHANNELS 6 Xposition Yposition Zposition Zrotation Xrotation Yrotation
                        JOINT RightHandPinky2
                        {
                          OFFSET 0 -3 0
                          CHANNELS 6 Xposition Yposition Zposition Zrotation Xrotation Yrotation
                          JOINT RightHandPinky3
                          {
                            OFFSET -1.22243e-05 -2.35001 0
                            CHANNELS 6 Xposition Yposition Zposition Zrotation Xrotation Yrotation
                            End Site
                            {
                              OFFSET 1.2562e-05 -2.1 0
                            }
                          }
                        }
                      }
                    }
                  }
                }
              }
            }
          }
        }
      }
    }
  }
  JOINT LeftUpLeg
  {
    OFFSET 8 0 0
    CHANNELS 6 Xposition Yposition Zposition Zrotation Xrotation Yrotation
    JOINT LeftLeg
    {
      OFFSET 0 -45 -1
      CHANNELS 6 Xposition Yposition Zposition Zrotation Xrotation Yrotation
      JOINT LeftFoot
      {
        OFFSET 0 -41 -2
        CHANNELS 6 Xposition Yposition Zposition Zrotation Xrotation Yrotation
        JOINT LeftToeBase
        {
          OFFSET 0 -7.5 12.5
          CHANNELS 6 Xposition Yposition Zposition Zrotation Xrotation Yrotation
          JOINT LeftFootToe
          {
            OFFSET 0 0 4
            CHANNELS 6 Xposition Yposition Zposition Zrotation Xrotation Yrotation
            End Site
            {
              OFFSET 0 0 0
            }
          }
        }
      }
    }
  }
  JOINT RightUpLeg
  {
    OFFSET -8 0 0
    CHANNELS 6 Xposition Yposition Zposition Zrotation Xrotation Yrotation
    JOINT RightLeg
    {
      OFFSET 0 -45 -0.999998
      CHANNELS 6 Xposition Yposition Zposition Zrotation Xrotation Yrotation
      JOINT RightFoot
      {
        OFFSET 0 -41 -2
        CHANNELS 6 Xposition Yposition Zposition Zrotation Xrotation Yrotation
        JOINT RightToeBase
        {
          OFFSET 0 -7.5 12.5
          CHANNELS 6 Xposition Yposition Zposition Zrotation Xrotation Yrotation
          JOINT RightFootToe
          {
            OFFSET 0 0 4
            CHANNELS 6 Xposition Yposition Zposition Zrotation Xrotation Yrotation
            End Site
            {
              OFFSET 0 0 0
            }
          }
        }
      }
    }
  }
}
MOTION
Frames:	3
Frame Time:	0.0111111
14.3883 92.7535 18.0548 -2.81764 -2.08464 -110.534 0 8 0 -2.27523 0.985739 4.33612 -1.77636e-15 8 0 0.648024 0.186281 -1.59318 1.77636e-15 8 0 0.0560335 0.122817 0.644439 -1.77636e-15 8 0 -0.003806 0.00168507 -0.0757126 1.77636e-15 17 0 -0.474567 5.50315 5.11519 0 10.8 -3.55271e-15 -1.90643 12.7718 12.1762 5 17 0 -0.000475284 -0.00468834 -5.28271 6.45 0 -3.55271e-15 -0.0011111 -0.00406452 -5.2808 6.45 0 3.55271e-15 23.8288 -23.9283 -0.501644 0 -32.4 -2 -56.9313 -52.3152 -28.5292 -3.55271e-15 -25.65 2 35.6321 0.141357 -39.0834 -0.5 -1.5 2.65 -33.9178 7.69683 1.83626 0 -3.8 3.7 -0.0333229 18.9406 0.0339649 1.42109e-14 -3 2.7 -0.00536149 -9.09817e-05 0.00309228 0 -1.9 1.6 0.000451878 0.383206 8.60274e-05 0 -8.3 1.9 -42.6946 13.7434 6.05092 1.42109e-14 -4.5 -7.10543e-15 -14.073 -0.0223192 0.00273158 7.10543e-15 -3.4 0 -11.8191 -0.0173842 0.00188799 -0.25 -2.2 0.4 1.46845e-06 -2.3488e-07 -2.37537e-07 -1.42109e-14 -8.3 1 -63.4193 15.9689 13.1434 -7.10543e-15 -4.65 0 -55.1287 0.00806249 0.00705119 0 -3.3 -7.10543e-15 -38.1806 -0.0168885 0.00089537 -0.5 -2.15 -0.8 1.46845e-06 -2.3488e-07 -2.37537e-07 0 -7.75 -0.2 -84.9933 6.05797 15.2887 -4.44089e-16 -3.8 0 -61.3517 0.00263235 -0.00926706 0 -3.4 7.10543e-15 -43.2372 -0.00883471 0.000460265 -0.75 -1.75 -1.85 1.46845e-06 -2.3488e-07 -2.37537e-07 0 -7.15 -1 -88.329 2.23427 16.176 6.21725e-15 -3 7.10543e-15 -49.1306 -0.00443602 0.023359 -1.42109e-14 -2.35 0 -33.9104 -0.0107593 -0.00309712 -5 17 3.55271e-15 0.0024398 -0.00347013 2.39374 -6.45 -2.84217e-14 3.55271e-15 -0.000247751 -0.00322017 2.39295 -6.45 -2.84217e-14 7.10543e-15 -12.5322 -14.6711 1.67991 -7.10543e-15 -32.4 -2 80.774 -50.4886 39.799 0 -25.65 2 -46.5453 -13.6273 3.5396 0.5 -1.5 2.65 22.0703 3.07481 14.484 4.44089e-16 -3.8 3.7 -0.00377706 19.2312 -0.010754 0 -3 2.7 -0.00208735 15.4878 0.00227706 0 -1.9 1.6 -1.35821e-05 -0.000497728 2.82491e-05 0 -8.3 1.9 37.563 14.354 -5.42408 3.55271e-15 -4.5 0 52.8028 -0.0342944 0.0355997 -3.55271e-15 -3.4 0 36.6881 -0.00292425 0.0323773 0.25 -2.2 0.4 -2.51099e-05 -0.000667947 2.87021e-05 0 -8.3 1 44.5114 21.3448 -10.6198 7.10543e-15 -4.65 0 51.3907 0.0285916 -0.025007 0 -3.3 -1.42109e-14 35.5465 0.00602941 -0.0278152 0.5 -2.15 -0.8 -3.07369e-05 1.07781e-05 0.010375 -3.55271e-15 -7.75 -0.2 57.4978 22.9119 -16.8695 -7.10543e-15 -3.8 1.42109e-14 19.0891 -0.00593977 0.00988 0 -3.4 -1.42109e-14 15.2874 -0.00358737 0.00050998 0.75 -1.75 -1.85 -0.0112465 1.53452e-05 0.00853076 0 -7.15 -1 56.749 24.4296 -18.4351 7.10543e-15 -3 0 0.000295324 -0.00171021 0.00627576 1.42109e-14 -2.35 1.42109e-14 -7.64229e-06 0.00672805 0.00234365 8 0 0 -1.5497 -4.6713 8.26845 0 -45 -1 0.00876734 9.43238 0.0872782 0 -41 -2 -0.447689 -2.72213 -1.15409 0 -7.5 12.5 -2.61515e-11 9.57768e-05 -1.30571e-10 0 -2.1684e-19 4 -0.975926 4.27456 0.0223597 -8 1.42109e-14 0 -10.8206 -6.88689 -7.04418 1.77636e-15 -45 -1 -0.0174438 11.4512 0.255022 -1.77636e-15 -41 -2 6.75064 -1.7674 -1.15431 -1.77636e-15 -7.5 12.5 -9.68622e-25 -5.81638e-09 -9.54166e-15 0 0 4 -5.31497 -3.26224 0.0146114 
14.226 92.793 18.3622 -2.81922 -1.99913 -109.905 0 8 3.55271e-15 -2.13552 1.00201 4.40863 0 8 0 0.6644 0.186283 -1.57995 -1.77636e-15 8 0 0.0559659 0.122816 0.675986 -1.77636e-15 8 3.55271e-15 -0.00399443 0.00152125 -0.104357 0 17 0 -0.513595 5.45844 5.13003 0 10.8 0 -1.99367 12.6605 12.2139 5 17 0 -0.000476163 -0.00468826 -5.29345 6.45 0 3.55271e-15 -0.00110837 -0.00407195 -5.29223 6.45 -2.84217e-14 0 24.126 -23.9221 0.075035 0 -32.4 -2 -56.8663 -52.1974 -28.5572 0 -25.65 2 35.5475 0.31421 -39.0903 -0.5 -1.5 2.65 -33.8785 7.3924 1.84426 0 -3.8 3.7 -0.0244546 19.7041 0.02181 0 -3 2.7 -0.00536149 -9.09817e-05 0.00309228 -1.42109e-14 -1.9 1.6 0.000451878 0.383206 8.60274e-05 0 -8.3 1.9 -43.3344 13.8115 6.18198 0 -4.5 7.10543e-15 -14.633 -0.0130522 0.00273158 0 -3.4 7.10543e-15 -12.2294 -0.0102472 0.00188799 -0.25 -2.2 0.4 1.46845e-06 -2.3488e-07 -2.37537e-07 1.42109e-14 -8.3 1 -63.8945 15.9301 13.2517 7.10543e-15 -4.65 7.10543e-15 -55.1503 0.00806249 0.00705119 0 -3.3 1.42109e-14 -38.1969 -0.0168885 0.00089537 -0.5 -2.15 -0.8 1.46845e-06 -2.3488e-07 -2.37537e-07 -1.42109e-14 -7.75 -0.2 -85.2044 5.92851 15.2769 -2.22045e-15 -3.8 1.42109e-14 -61.5252 0.00263235 -0.00926706 0 -3.4 0 -43.3891 -0.00883471 0.000460265 -0.75 -1.75 -1.85 1.46845e-06 -2.3488e-07 -2.37537e-07 1.42109e-14 -7.15 -1 -88.4294 2.17071 16.2146 2.66454e-15 -3 -7.10543e-15 -49.4582 -0.00579178 0.023359 0 -2.35 0 -34.1312 -0.0107593 -0.00309712 -5 17 0 0.0024445 -0.00346993 2.47139 -6.45 5.68434e-14 3.55271e-15 -0.000239972 -0.00321849 2.47131 -6.45 2.84217e-14 0 -12.3071 -15.1863 1.78054 0 -32.4 -2 80.9638 -50.6633 40.2738 7.10543e-15 -25.65 2 -47.6831 -13.4264 3.83379 0.5 -1.5 2.65 22.1882 3.03709 14.5084 8.88178e-16 -3.8 3.7 -0.0037645 19.2944 -0.0107582 8.88178e-16 -3 2.7 -0.00210764 15.9786 0.00228256 7.10543e-15 -1.9 1.6 -1.35821e-05 -0.000497728 2.82491e-05 0 -8.3 1.9 37.8623 14.3787 -5.48024 -3.55271e-15 -4.5 0 50.0886 -0.0741761 0.0274693 -3.55271e-15 -3.4 1.42109e-14 34.8905 -0.0284878 0.0405794 0.25 -2.2 0.4 -2.51099e-05 -0.000667947 2.87021e-05 0 -8.3 1 45.7383 21.0852 -10.8328 0 -4.65 0 52.4361 0.0539169 -0.0320143 7.10543e-15 -3.3 1.42109e-14 36.3281 0.0178 -0.0434464 0.5 -2.15 -0.8 -3.07369e-05 1.07781e-05 0.010375 -3.55271e-15 -7.75 -0.2 59.193 22.2969 -17.1329 0 -3.8 -1.42109e-14 19.0917 0.00436698 0.00988 -7.10543e-15 -3.4 -1.42109e-14 15.289 0.000934725 0.00050998 0.75 -1.75 -1.85 -0.0112465 1.53452e-05 0.00853076 0 -7.15 -1 58.2725 23.6839 -18.6018 7.10543e-15 -3 0 0.000295324 -0.00171021 0.00627576 7.10543e-15 -2.35 -1.42109e-14 -7.64229e-06 0.00672805 0.00234365 8 0 0 -1.71304 -4.48805 8.2213 -3.55271e-15 -45 -1 0.00952972 9.10696 0.141525 0 -41 -2 -0.212277 -2.55414 -1.74612 -3.55271e-15 -7.5 12.5 -2.61515e-11 9.57768e-05 -1.30571e-10 0 -1.0842e-19 4 -1.3391 4.00347 0.0220572 -8 0 0 -10.8628 -6.16992 -6.82662 0 -45 -1 -0.0191854 10.2737 0.275524 0 -41 -2 7.00749 -1.25462 -1.41556 -1.77636e-15 -7.5 12.5 -9.68622e-25 -5.81638e-09 -9.54166e-15 0 0 4 -5.68167 -2.89964 0.0203036 
14.0049 92.8311 18.632 -2.81885 -1.91888 -109.262 3.55271e-15 8 3.55271e-15 -2.00009 1.01572 4.47382 0 8 0 0.679971 0.186284 -1.56802 0 8 3.55271e-15 0.0559122 0.122815 0.701001 0 8 0 -0.00417871 0.00135822 -0.147688 3.55271e-15 17 0 -0.550006 5.42047 5.12501 0 10.8 0 -2.07269 12.566 12.2045 5 17 0 -0.000477239 -0.00468816 -5.3066 6.45 0 0 -0.00110573 -0.00407938 -5.30647 6.45 0 0 24.4394 -23.9237 0.584577 -1.42109e-14 -32.4 -2 -56.826 -52.0728 -28.6147 7.10543e-15 -25.65 2 35.4585 0.588813 -39.1797 -0.5 -1.5 2.65 -33.8663 7.10077 1.87336 0 -3.8 3.7 -0.0166389 20.3753 0.0117635 0 -3 2.7 -0.00536149 -9.09817e-05 0.00309228 0 -1.9 1.6 0.000451878 0.383206 8.60274e-05 0 -8.3 1.9 -43.8802 13.8489 6.28517 1.42109e-14 -4.5 7.10543e-15 -15.0909 -0.00564743 0.00273158 7.10543e-15 -3.4 7.10543e-15 -12.5643 -0.00440453 0.00188799 -0.25 -2.2 0.4 1.46845e-06 -2.3488e-07 -2.37537e-07 1.42109e-14 -8.3 1 -64.3061 15.8915 13.3419 0 -4.65 1.42109e-14 -55.1413 0.00806249 0.00705119 7.10543e-15 -3.3 0 -38.1903 -0.0168885 0.00089537 -0.5 -2.15 -0.8 1.46845e-06 -2.3488e-07 -2.37537e-07 0 -7.75 -0.2 -85.3841 5.81853 15.2664 0 -3.8 0 -61.6758 0.00263235 -0.00926706 -1.42109e-14 -3.4 0 -43.5211 -0.00883471 0.000460265 -0.75 -1.75 -1.85 1.46845e-06 -2.3488e-07 -2.37537e-07 0 -7.15 -1 -88.5085 2.12057 16.2443 8.88178e-16 -3 0 -49.7092 -0.00555011 0.023359 -1.42109e-14 -2.35 -7.10543e-15 -34.3004 -0.0107593 -0.00309712 -5 17 0 0.00244936 -0.00346972 2.55163 -6.45 0 3.55271e-15 -0.000232078 -0.00321682 2.55189 -6.45 2.84217e-14 3.55271e-15 -12.1087 -15.7174 1.81933 0 -32.4 -2 81.2326 -50.8146 40.7684 7.10543e-15 -25.65 2 -48.8045 -13.2219 4.10018 0.5 -1.5 2.65 22.2601 2.99506 14.531 0 -3.8 3.7 -0.00375562 19.339 -0.0107611 -8.88178e-16 -3 2.7 -0.00212704 16.4457 0.00228797 0 -1.9 1.6 -1.35821e-05 -0.000497728 2.82491e-05 3.55271e-15 -8.3 1.9 38.1584 14.3798 -5.52792 3.55271e-15 -4.5 -1.42109e-14 47.0642 -0.106846 0.0109078 0 -3.4 1.42109e-14 32.9101 -0.0523913 0.0412009 0.25 -2.2 0.4 -2.51099e-05 -0.000667947 2.87021e-05 -3.55271e-15 -8.3 1 46.911 20.7903 -11.0121 0 -4.65 0 53.5616 0.072538 -0.0349148 -3.55271e-15 -3.3 0 37.1717 0.0274777 -0.0537657 0.5 -2.15 -0.8 -3.07369e-05 1.07781e-05 0.010375 7.10543e-15 -7.75 -0.2 60.8302 21.687 -17.3746 0 -3.8 0 19.1513 0.0121712 0.00988 0 -3.4 1.42109e-14 15.328 0.00459853 0.00050998 0.75 -1.75 -1.85 -0.0112465 1.53452e-05 0.00853076 -3.55271e-15 -7.15 -1 59.7635 22.9483 -18.7583 0 -3 0 0.000295324 -0.00171021 0.00627576 0 -2.35 0 -7.64229e-06 0.00672805 0.00234365 8 0 3.55271e-15 -1.87047 -4.2579 8.16707 -3.55271e-15 -45 -1 0.0102388 8.7727 0.197309 3.55271e-15 -41 -2 0.0100543 -2.42687 -2.32064 0 -7.5 12.5 -2.61515e-11 9.57768e-05 -1.30568e-10 0 1.0842e-19 4 -1.70494 3.71326 0.0332762 -8 1.42109e-14 3.55271e-15 -10.8988 -5.46581 -6.61032 1.77636e-15 -45 -1 -0.0212642 9.10072 0.294578 1.77636e-15 -41 -2 7.25158 -0.737564 -1.65015 1.77636e-15 -7.5 12.5 7.76503e-19 -5.81638e-09 3.18055e-15 0 1.0842e-19 4 -6.028 -2.47926 0.0266997 
